<svg width="32" height="32" viewBox="0 0 32 32" fill="none" xmlns="http://www.w3.org/2000/svg">
<g clip-path="url(#clip0_416_705)">
<rect width="32" height="32" rx="16" fill="#A5A5A5"/>
<path d="M24.5867 13.8757L16 5.3335L7.41335 13.8757C7.31204 13.9529 7.22849 14.0509 7.16835 14.1631C7.10822 14.2754 7.0729 14.3992 7.06479 14.5263C7.05668 14.6534 7.07598 14.7807 7.12136 14.8997C7.16674 15.0187 7.23716 15.1265 7.32784 15.2159C7.41853 15.3053 7.52736 15.3742 7.64697 15.4179C7.76659 15.4615 7.89419 15.479 8.02114 15.4691C8.14809 15.4592 8.27143 15.4221 8.38281 15.3604C8.49418 15.2986 8.59099 15.2137 8.66669 15.1113L15.1111 8.72016V25.7246C15.1111 25.9604 15.2048 26.1864 15.3715 26.3531C15.5382 26.5198 15.7643 26.6135 16 26.6135C16.2358 26.6135 16.4619 26.5198 16.6286 26.3531C16.7953 26.1864 16.8889 25.9604 16.8889 25.7246V8.72016L23.3334 15.1113C23.5007 15.2775 23.7273 15.3704 23.9632 15.3695C24.199 15.3687 24.4249 15.2742 24.5911 15.1068C24.7573 14.9394 24.8502 14.7129 24.8494 14.477C24.8486 14.2411 24.7541 14.0153 24.5867 13.8491V13.8757Z" fill="black"/>
</g>
<defs>
<clipPath id="clip0_416_705">
<rect width="32" height="32" rx="16" fill="white"/>
</clipPath>
</defs>
</svg>
