<svg width="135" height="32" viewBox="0 0 135 32" fill="none" xmlns="http://www.w3.org/2000/svg">
<rect width="135" height="32" rx="16" fill="#3C3C3C"/>
<path d="M31.0631 11.18V21.5H30.1031V11.18H26.3591V10.332H34.8071V11.18H31.0631ZM36.0783 21.5V20.7H37.7103V11.132H36.0783V10.332H40.3023V11.132H38.6703V20.7H40.3023V21.5H36.0783ZM42.8887 21.5V10.332H43.8487V20.652H48.7767V21.5H42.8887ZM50.7481 21.5V10.332H51.7081V20.652H56.6361V21.5H50.7481ZM58.6074 10.332H62.9754C63.8501 10.332 64.5328 10.5827 65.0234 11.084C65.5248 11.5747 65.7754 12.2627 65.7754 13.148C65.7754 13.532 65.7221 13.868 65.6154 14.156C65.5194 14.444 65.3914 14.684 65.2314 14.876C65.0714 15.068 64.8848 15.2227 64.6714 15.34C64.4688 15.4573 64.2661 15.5373 64.0634 15.58V15.644C64.3194 15.676 64.5754 15.756 64.8314 15.884C65.0874 16.0013 65.3168 16.172 65.5194 16.396C65.7221 16.6093 65.8874 16.8813 66.0154 17.212C66.1434 17.532 66.2074 17.9107 66.2074 18.348C66.2074 18.8067 66.1381 19.228 65.9994 19.612C65.8714 19.996 65.6794 20.332 65.4234 20.62C65.1781 20.8973 64.8794 21.116 64.5274 21.276C64.1861 21.4253 63.8021 21.5 63.3754 21.5H58.6074V10.332ZM59.5674 20.652H63.1194C63.7914 20.652 64.3034 20.4707 64.6554 20.108C65.0074 19.7347 65.1834 19.2547 65.1834 18.668V18.076C65.1834 17.5 65.0074 17.0307 64.6554 16.668C64.3034 16.2947 63.7914 16.108 63.1194 16.108H59.5674V20.652ZM59.5674 15.276H62.8794C63.4874 15.276 63.9514 15.116 64.2714 14.796C64.5914 14.4653 64.7514 14.044 64.7514 13.532V12.924C64.7514 12.412 64.5914 11.996 64.2714 11.676C63.9514 11.3453 63.4874 11.18 62.8794 11.18H59.5674V15.276ZM68.8106 21.5V10.332H75.3386V11.18H69.7706V15.404H75.0666V16.252H69.7706V20.652H75.3386V21.5H68.8106ZM85.0861 16.252H78.9581V21.5H77.9981V10.332H78.9581V15.404H85.0861V10.332H86.0461V21.5H85.0861V16.252ZM93.2168 21.692C91.7875 21.692 90.6675 21.2067 89.8568 20.236C89.0461 19.2547 88.6408 17.8147 88.6408 15.916C88.6408 14.0173 89.0461 12.5827 89.8568 11.612C90.6675 10.6307 91.7875 10.14 93.2168 10.14C94.6355 10.14 95.7501 10.6307 96.5608 11.612C97.3715 12.5933 97.7768 14.028 97.7768 15.916C97.7768 17.804 97.3715 19.2387 96.5608 20.22C95.7501 21.2013 94.6355 21.692 93.2168 21.692ZM93.2168 20.828C93.7501 20.828 94.2301 20.7373 94.6568 20.556C95.0941 20.364 95.4675 20.0867 95.7768 19.724C96.0861 19.3613 96.3261 18.9187 96.4968 18.396C96.6675 17.8733 96.7528 17.2813 96.7528 16.62V15.212C96.7528 14.5507 96.6675 13.9587 96.4968 13.436C96.3261 12.9133 96.0861 12.476 95.7768 12.124C95.4675 11.7613 95.0941 11.484 94.6568 11.292C94.2301 11.1 93.7501 11.004 93.2168 11.004C92.6835 11.004 92.1981 11.1 91.7608 11.292C91.3235 11.484 90.9501 11.7613 90.6408 12.124C90.3315 12.476 90.0915 12.9133 89.9208 13.436C89.7501 13.9587 89.6648 14.5507 89.6648 15.212V16.62C89.6648 17.2813 89.7501 17.8733 89.9208 18.396C90.0915 18.9187 90.3315 19.3613 90.6408 19.724C90.9501 20.0867 91.3235 20.364 91.7608 20.556C92.1981 20.7373 92.6835 20.828 93.2168 20.828ZM91.7448 8.7C91.5208 8.7 91.3555 8.64667 91.2488 8.54C91.1528 8.42267 91.1048 8.27867 91.1048 8.108V7.948C91.1048 7.77733 91.1528 7.63867 91.2488 7.532C91.3555 7.41467 91.5208 7.356 91.7448 7.356C91.9581 7.356 92.1128 7.41467 92.2088 7.532C92.3155 7.63867 92.3688 7.77733 92.3688 7.948V8.108C92.3688 8.27867 92.3155 8.42267 92.2088 8.54C92.1128 8.64667 91.9581 8.7 91.7448 8.7ZM94.6888 8.7C94.4755 8.7 94.3155 8.64667 94.2088 8.54C94.1128 8.42267 94.0648 8.27867 94.0648 8.108V7.948C94.0648 7.77733 94.1128 7.63867 94.2088 7.532C94.3155 7.41467 94.4755 7.356 94.6888 7.356C94.9128 7.356 95.0728 7.41467 95.1688 7.532C95.2755 7.63867 95.3288 7.77733 95.3288 7.948V8.108C95.3288 8.27867 95.2755 8.42267 95.1688 8.54C95.0728 8.64667 94.9128 8.7 94.6888 8.7ZM101.333 21.5H100.373V10.332H104.757C105.717 10.332 106.453 10.604 106.965 11.148C107.488 11.692 107.749 12.4547 107.749 13.436C107.749 14.3 107.536 14.9987 107.109 15.532C106.693 16.0653 106.085 16.3853 105.285 16.492L108.037 21.5H106.965L104.293 16.556H101.333V21.5ZM104.757 15.74C105.397 15.74 105.882 15.564 106.213 15.212C106.554 14.8493 106.725 14.3907 106.725 13.836V13.068C106.725 12.524 106.554 12.076 106.213 11.724C105.882 11.3613 105.397 11.18 104.757 11.18H101.333V15.74H104.757Z" fill="white"/>
</svg>
