<svg width="104" height="32" viewBox="0 0 104 32" fill="none" xmlns="http://www.w3.org/2000/svg">
<rect width="104" height="32" rx="16" fill="#3C3C3C"/>
<path d="M34.6073 21.5L33.3913 18.028H28.6393L27.4233 21.5H26.4633L30.4153 10.332H31.6473L35.6153 21.5H34.6073ZM31.0393 11.244H30.9753L28.8793 17.196H33.1353L31.0393 11.244ZM38.5913 11.644H38.5433V21.5H37.6153V10.332H38.8153L44.6873 20.188H44.7353V10.332H45.6633V21.5H44.4633L38.5913 11.644ZM57.602 11.564H57.538L53.682 18.396L49.826 11.564H49.762V21.5H48.834V10.332H50.146L53.682 16.62H53.73L57.266 10.332H58.53V21.5H57.602V11.564ZM68.6854 21.5L67.4694 18.028H62.7174L61.5014 21.5H60.5414L64.4934 10.332H65.7254L69.6934 21.5H68.6854ZM65.1174 11.244H65.0534L62.9574 17.196H67.2134L65.1174 11.244ZM63.6454 8.7C63.4214 8.7 63.256 8.64667 63.1494 8.54C63.0534 8.42267 63.0054 8.27867 63.0054 8.108V7.948C63.0054 7.77733 63.0534 7.63867 63.1494 7.532C63.256 7.41467 63.4214 7.356 63.6454 7.356C63.8587 7.356 64.0134 7.41467 64.1094 7.532C64.216 7.63867 64.2694 7.77733 64.2694 7.948V8.108C64.2694 8.27867 64.216 8.42267 64.1094 8.54C64.0134 8.64667 63.8587 8.7 63.6454 8.7ZM66.5894 8.7C66.376 8.7 66.216 8.64667 66.1094 8.54C66.0134 8.42267 65.9654 8.27867 65.9654 8.108V7.948C65.9654 7.77733 66.0134 7.63867 66.1094 7.532C66.216 7.41467 66.376 7.356 66.5894 7.356C66.8134 7.356 66.9734 7.41467 67.0694 7.532C67.176 7.63867 67.2294 7.77733 67.2294 7.948V8.108C67.2294 8.27867 67.176 8.42267 67.0694 8.54C66.9734 8.64667 66.8134 8.7 66.5894 8.7ZM71.6934 21.5V10.332H72.6534V20.652H77.5814V21.5H71.6934Z" fill="white"/>
</svg>
