<svg width="124" height="32" viewBox="0 0 124 32" fill="none" xmlns="http://www.w3.org/2000/svg">
<rect width="124" height="32" rx="16" fill="#3C3C3C"/>
<path d="M30.4718 21.5L26.7278 10.332H27.7678L31.0638 20.524H31.1278L34.4558 10.332H35.4638L31.6878 21.5H30.4718ZM43.826 21.5L42.61 18.028H37.858L36.642 21.5H35.682L39.634 10.332H40.866L44.834 21.5H43.826ZM40.258 11.244H40.194L38.098 17.196H42.354L40.258 11.244ZM40.258 9.42C39.7673 9.42 39.362 9.26533 39.042 8.956C38.722 8.636 38.562 8.22533 38.562 7.724C38.562 7.23333 38.722 6.83333 39.042 6.524C39.362 6.204 39.7673 6.044 40.258 6.044C40.7487 6.044 41.154 6.204 41.474 6.524C41.794 6.83333 41.954 7.23333 41.954 7.724C41.954 8.22533 41.794 8.636 41.474 8.956C41.154 9.26533 40.7487 9.42 40.258 9.42ZM40.258 8.828C40.5673 8.828 40.8127 8.74267 40.994 8.572C41.1753 8.40133 41.266 8.16667 41.266 7.868V7.596C41.266 7.28667 41.1753 7.052 40.994 6.892C40.8127 6.72133 40.5673 6.636 40.258 6.636C39.9487 6.636 39.7033 6.72133 39.522 6.892C39.3407 7.052 39.25 7.28667 39.25 7.596V7.868C39.25 8.16667 39.3407 8.40133 39.522 8.572C39.7033 8.74267 39.9487 8.828 40.258 8.828ZM47.794 21.5H46.834V10.332H51.218C52.178 10.332 52.914 10.604 53.426 11.148C53.9487 11.692 54.21 12.4547 54.21 13.436C54.21 14.3 53.9967 14.9987 53.57 15.532C53.154 16.0653 52.546 16.3853 51.746 16.492L54.498 21.5H53.426L50.754 16.556H47.794V21.5ZM51.218 15.74C51.858 15.74 52.3433 15.564 52.674 15.212C53.0153 14.8493 53.186 14.3907 53.186 13.836V13.068C53.186 12.524 53.0153 12.076 52.674 11.724C52.3433 11.3613 51.858 11.18 51.218 11.18H47.794V15.74H51.218ZM61.7471 21.5H60.7871V10.332H65.1711C66.1311 10.332 66.8671 10.604 67.3791 11.148C67.9018 11.692 68.1631 12.4547 68.1631 13.436C68.1631 14.3 67.9498 14.9987 67.5231 15.532C67.1071 16.0653 66.4991 16.3853 65.6991 16.492L68.4511 21.5H67.3791L64.7071 16.556H61.7471V21.5ZM65.1711 15.74C65.8111 15.74 66.2965 15.564 66.6271 15.212C66.9685 14.8493 67.1391 14.3907 67.1391 13.836V13.068C67.1391 12.524 66.9685 12.076 66.6271 11.724C66.2965 11.3613 65.8111 11.18 65.1711 11.18H61.7471V15.74H65.1711ZM70.959 21.5V10.332H77.487V11.18H71.919V15.404H77.215V16.252H71.919V20.652H77.487V21.5H70.959ZM83.1065 21.692C82.1892 21.692 81.4212 21.5213 80.8025 21.18C80.1945 20.828 79.6718 20.364 79.2345 19.788L79.9545 19.196C80.3492 19.7187 80.7918 20.124 81.2825 20.412C81.7838 20.7 82.4025 20.844 83.1385 20.844C84.0025 20.844 84.6638 20.6413 85.1225 20.236C85.5918 19.82 85.8265 19.244 85.8265 18.508C85.8265 17.8253 85.6292 17.324 85.2345 17.004C84.8398 16.684 84.2852 16.4493 83.5705 16.3L82.5785 16.092C81.5118 15.8787 80.7385 15.5213 80.2585 15.02C79.7785 14.5187 79.5385 13.8787 79.5385 13.1C79.5385 12.6093 79.6238 12.1827 79.7945 11.82C79.9652 11.4467 80.2052 11.1373 80.5145 10.892C80.8345 10.6467 81.2132 10.46 81.6505 10.332C82.0985 10.204 82.5892 10.14 83.1225 10.14C83.9545 10.14 84.6585 10.2893 85.2345 10.588C85.8105 10.8867 86.2852 11.308 86.6585 11.852L85.9385 12.38C85.6292 11.932 85.2398 11.5907 84.7705 11.356C84.3118 11.1107 83.7465 10.988 83.0745 10.988C82.2745 10.988 81.6398 11.164 81.1705 11.516C80.7118 11.8573 80.4825 12.3747 80.4825 13.068C80.4825 13.7293 80.6905 14.2147 81.1065 14.524C81.5225 14.8333 82.0772 15.0573 82.7705 15.196L83.7625 15.404C84.8718 15.6493 85.6505 16.028 86.0985 16.54C86.5465 17.052 86.7705 17.692 86.7705 18.46C86.7705 19.484 86.4452 20.2787 85.7945 20.844C85.1438 21.4093 84.2478 21.692 83.1065 21.692ZM96.2323 21.5L95.0163 18.028H90.2643L89.0483 21.5H88.0883L92.0403 10.332H93.2723L97.2403 21.5H96.2323ZM92.6643 11.244H92.6003L90.5043 17.196H94.7603L92.6643 11.244Z" fill="white"/>
</svg>
