<svg width="109" height="32" viewBox="0 0 109 32" fill="none" xmlns="http://www.w3.org/2000/svg">
<rect width="109" height="32" rx="16" fill="#3C3C3C"/>
<path d="M34.951 21.5L33.735 18.028H28.983L27.767 21.5H26.807L30.759 10.332H31.991L35.959 21.5H34.951ZM31.383 11.244H31.319L29.223 17.196H33.479L31.383 11.244ZM31.383 9.42C30.8923 9.42 30.487 9.26533 30.167 8.956C29.847 8.636 29.687 8.22533 29.687 7.724C29.687 7.23333 29.847 6.83333 30.167 6.524C30.487 6.204 30.8923 6.044 31.383 6.044C31.8737 6.044 32.279 6.204 32.599 6.524C32.919 6.83333 33.079 7.23333 33.079 7.724C33.079 8.22533 32.919 8.636 32.599 8.956C32.279 9.26533 31.8737 9.42 31.383 9.42ZM31.383 8.828C31.6923 8.828 31.9377 8.74267 32.119 8.572C32.3003 8.40133 32.391 8.16667 32.391 7.868V7.596C32.391 7.28667 32.3003 7.052 32.119 6.892C31.9377 6.72133 31.6923 6.636 31.383 6.636C31.0737 6.636 30.8283 6.72133 30.647 6.892C30.4657 7.052 30.375 7.28667 30.375 7.596V7.868C30.375 8.16667 30.4657 8.40133 30.647 8.572C30.8283 8.74267 31.0737 8.828 31.383 8.828ZM40.727 15.74L38.919 17.74V21.5H37.959V10.332H38.919V16.62H38.951L40.743 14.556L44.423 10.332H45.591L41.383 15.084L45.799 21.5H44.615L40.727 15.74ZM60.2739 11.564H60.2099L56.3539 18.396L52.4979 11.564H52.4339V21.5H51.5059V10.332H52.8179L56.3539 16.62H56.4019L59.9379 10.332H61.2019V21.5H60.2739V11.564ZM64.3653 21.5V10.332H70.8933V11.18H65.3253V15.404H70.6213V16.252H65.3253V20.652H70.8933V21.5H64.3653ZM73.5528 10.332H77.1048C78.5448 10.332 79.6541 10.796 80.4328 11.724C81.2221 12.652 81.6168 14.0493 81.6168 15.916C81.6168 17.7827 81.2221 19.18 80.4328 20.108C79.6541 21.036 78.5448 21.5 77.1048 21.5H73.5528V10.332ZM77.1208 20.652C78.2194 20.652 79.0728 20.3 79.6808 19.596C80.2888 18.8813 80.5928 17.9 80.5928 16.652V15.18C80.5928 13.932 80.2888 12.956 79.6808 12.252C79.0728 11.5373 78.2194 11.18 77.1208 11.18H74.5128V20.652H77.1208Z" fill="white"/>
</svg>
