<svg width="110" height="32" viewBox="0 0 110 32" fill="none" xmlns="http://www.w3.org/2000/svg">
<rect width="110" height="32" rx="16" fill="#3C3C3C"/>
<path d="M31.8288 21.692C30.4421 21.692 29.3701 21.212 28.6128 20.252C27.8554 19.2813 27.4768 17.8467 27.4768 15.948C27.4768 14.06 27.8554 12.62 28.6128 11.628C29.3701 10.636 30.4421 10.14 31.8288 10.14C32.7248 10.14 33.4768 10.3533 34.0848 10.78C34.7034 11.2067 35.1834 11.788 35.5248 12.524L34.7408 12.988C34.4954 12.38 34.1221 11.9 33.6208 11.548C33.1301 11.1853 32.5328 11.004 31.8288 11.004C30.7834 11.004 29.9674 11.3773 29.3808 12.124C28.7941 12.8707 28.5008 13.9373 28.5008 15.324V16.588C28.5008 17.964 28.7941 19.0147 29.3808 19.74C29.9674 20.4653 30.7834 20.828 31.8288 20.828C32.5754 20.828 33.1994 20.6413 33.7008 20.268C34.2021 19.884 34.5754 19.372 34.8208 18.732L35.6048 19.196C35.2741 19.964 34.7888 20.572 34.1488 21.02C33.5088 21.468 32.7354 21.692 31.8288 21.692ZM40.4089 21.5V16.972L36.5529 10.332H37.6409L40.8729 15.964H40.9209L44.1529 10.332H45.2409L41.3689 16.924V21.5H40.4089ZM49.852 15.74L48.044 17.74V21.5H47.084V10.332H48.044V16.62H48.076L49.868 14.556L53.548 10.332H54.716L50.508 15.084L54.924 21.5H53.74L49.852 15.74ZM56.8496 21.5V10.332H63.3776V11.18H57.8096V15.404H63.1056V16.252H57.8096V20.652H63.3776V21.5H56.8496ZM66.0371 21.5V10.332H66.9971V20.652H71.9251V21.5H66.0371ZM74.8725 11.644H74.8245V21.5H73.8965V10.332H75.0965L80.9685 20.188H81.0165V10.332H81.9445V21.5H80.7445L74.8725 11.644Z" fill="white"/>
</svg>
