<svg width="32" height="32" viewBox="0 0 32 32" fill="none" xmlns="http://www.w3.org/2000/svg">
<rect x="32" y="32" width="32" height="32" rx="16" transform="rotate(-180 32 32)" fill="#DBD7CB"/>
<path d="M21.9304 15.4568L13.5709 7.49181C13.4315 7.35884 13.2461 7.28467 13.0534 7.28467C12.8607 7.28467 12.6754 7.35884 12.5359 7.49181L12.5269 7.50081C12.4591 7.56527 12.4051 7.64286 12.3681 7.72886C12.3312 7.81486 12.3122 7.90747 12.3122 8.00106C12.3122 8.09465 12.3312 8.18726 12.3681 8.27326C12.4051 8.35926 12.4591 8.43685 12.5269 8.50131L20.3989 16.0013L12.5269 23.4983C12.4591 23.5628 12.4051 23.6404 12.3681 23.7264C12.3312 23.8124 12.3122 23.905 12.3122 23.9986C12.3122 24.0921 12.3312 24.1848 12.3681 24.2708C12.4051 24.3568 12.4591 24.4343 12.5269 24.4988L12.5359 24.5078C12.6754 24.6408 12.8607 24.715 13.0534 24.715C13.2461 24.715 13.4315 24.6408 13.5709 24.5078L21.9304 16.5428C22.004 16.4728 22.0625 16.3885 22.1025 16.2952C22.1425 16.2018 22.1631 16.1014 22.1631 15.9998C22.1631 15.8983 22.1425 15.7978 22.1025 15.7044C22.0625 15.6111 22.004 15.5269 21.9304 15.4568Z" fill="white"/>
</svg>
