<svg width="32" height="32" viewBox="0 0 32 32" fill="none" xmlns="http://www.w3.org/2000/svg">
<rect width="32" height="32" rx="16" fill="#DBD7CB"/>
<path d="M10.0696 16.5432L18.4291 24.5082C18.5685 24.6412 18.7539 24.7153 18.9466 24.7153C19.1393 24.7153 19.3246 24.6412 19.4641 24.5082L19.4731 24.4992C19.5409 24.4347 19.5949 24.3571 19.6319 24.2711C19.6688 24.1851 19.6878 24.0925 19.6878 23.9989C19.6878 23.9053 19.6688 23.8127 19.6319 23.7267C19.5949 23.6407 19.5409 23.5631 19.4731 23.4987L11.6011 15.9987L19.4731 8.50169C19.5409 8.43723 19.5949 8.35964 19.6319 8.27364C19.6688 8.18764 19.6878 8.09503 19.6878 8.00144C19.6878 7.90785 19.6688 7.81524 19.6319 7.72924C19.5949 7.64324 19.5409 7.56565 19.4731 7.50119L19.4641 7.49219C19.3246 7.35922 19.1393 7.28505 18.9466 7.28505C18.7539 7.28505 18.5685 7.35922 18.4291 7.49219L10.0696 15.4572C9.99605 15.5272 9.93752 15.6115 9.89753 15.7048C9.85754 15.7982 9.83691 15.8986 9.83691 16.0002C9.83691 16.1017 9.85754 16.2022 9.89753 16.2956C9.93752 16.3889 9.99605 16.4731 10.0696 16.5432Z" fill="white"/>
</svg>
