<svg width="10" height="18" viewBox="0 0 10 18" fill="none" xmlns="http://www.w3.org/2000/svg">
<path d="M0.232651 9.25803L8.59215 17.223C8.73163 17.356 8.91694 17.4302 9.10965 17.4302C9.30236 17.4302 9.48767 17.356 9.62715 17.223L9.63615 17.214C9.704 17.1496 9.75803 17.072 9.79495 16.986C9.83187 16.9 9.85091 16.8074 9.85091 16.7138C9.85091 16.6202 9.83187 16.5276 9.79495 16.4416C9.75803 16.3556 9.704 16.278 9.63615 16.2135L1.76415 8.71353L9.63615 1.21653C9.704 1.15207 9.75803 1.07448 9.79495 0.988485C9.83187 0.902485 9.85091 0.809874 9.85091 0.716284C9.85091 0.622694 9.83187 0.530083 9.79495 0.444084C9.75803 0.358084 9.704 0.280494 9.63615 0.216034L9.62715 0.207034C9.48767 0.0740665 9.30236 -0.000110195 9.10965 -0.000110195C8.91694 -0.000110195 8.73163 0.0740665 8.59215 0.207034L0.232651 8.17203C0.159132 8.24208 0.100603 8.32632 0.0606122 8.41966C0.0206211 8.513 0 8.61349 0 8.71503C0 8.81658 0.0206211 8.91707 0.0606122 9.0104C0.100603 9.10374 0.159132 9.18799 0.232651 9.25803Z" fill="black"/>
</svg>
