<svg width="10" height="18" viewBox="0 0 10 18" fill="none" xmlns="http://www.w3.org/2000/svg">
<path d="M9.61842 8.17214L1.25892 0.207143C1.11944 0.074176 0.934129 0 0.741423 0C0.548717 0 0.363407 0.074176 0.223924 0.207143L0.214924 0.216143C0.147071 0.280603 0.0930417 0.358192 0.0561211 0.444192C0.0192005 0.530192 0.000160933 0.622803 0.000160933 0.716393C0.000160933 0.809983 0.0192005 0.902594 0.0561211 0.988594C0.0930417 1.07459 0.147071 1.15218 0.214924 1.21664L8.08692 8.71664L0.214924 16.2136C0.147071 16.2781 0.0930417 16.3557 0.0561211 16.4417C0.0192005 16.5277 0.000160933 16.6203 0.000160933 16.7139C0.000160933 16.8075 0.0192005 16.9001 0.0561211 16.9861C0.0930417 17.0721 0.147071 17.1497 0.214924 17.2141L0.223924 17.2231C0.363407 17.3561 0.548717 17.4303 0.741423 17.4303C0.934129 17.4303 1.11944 17.3561 1.25892 17.2231L9.61842 9.25814C9.69194 9.1881 9.75047 9.10385 9.79046 9.01051C9.83045 8.91717 9.85107 8.81669 9.85107 8.71514C9.85107 8.6136 9.83045 8.51311 9.79046 8.41977C9.75047 8.32643 9.69194 8.24219 9.61842 8.17214Z" fill="black"/>
</svg>
