<svg width="22" height="22" viewBox="0 0 22 22" fill="none" xmlns="http://www.w3.org/2000/svg">
<path d="M10.75 20.5C9.46961 20.5 8.20176 20.2478 7.01884 19.7578C5.83591 19.2678 4.76108 18.5497 3.85571 17.6443C2.95034 16.7389 2.23216 15.6641 1.74217 14.4812C1.25219 13.2982 1 12.0304 1 10.75C1 9.46961 1.25219 8.20176 1.74217 7.01884C2.23216 5.83591 2.95034 4.76108 3.85571 3.85571C4.76108 2.95034 5.83591 2.23216 7.01884 1.74217C8.20176 1.25219 9.46961 1 10.75 1C13.3359 1 15.8158 2.02723 17.6443 3.85571C19.4728 5.68419 20.5 8.16414 20.5 10.75C20.5 13.3359 19.4728 15.8158 17.6443 17.6443C15.8158 19.4728 13.3359 20.5 10.75 20.5ZM10.75 20.5V9.35714C10.75 8.61833 11.0435 7.90977 11.5659 7.38735C12.0883 6.86492 12.7969 6.57143 13.5357 6.57143H14.2321M7.26786 12.1429H14.2321" stroke="black" stroke-width="1.3"/>
</svg>
