<svg width="169" height="41" viewBox="0 0 169 41" fill="none" xmlns="http://www.w3.org/2000/svg">
<path d="M5.8125 0.279999L13.3325 19.384L20.8205 0.279999H23.8605L14.6445 23H12.0205L2.7725 0.279999H5.8125ZM31.4025 23V0.279999H34.2825V23H31.4025ZM44.451 23V0.279999H53.891C54.8723 0.279999 55.7577 0.482665 56.547 0.887999C57.3577 1.29333 58.051 1.83733 58.627 2.52C59.2243 3.18133 59.683 3.928 60.003 4.76C60.3443 5.592 60.515 6.44533 60.515 7.32C60.515 8.45067 60.291 9.50667 59.843 10.488C59.395 11.4693 58.7657 12.2907 57.955 12.952C57.1657 13.6133 56.2377 14.0187 55.171 14.168L60.835 23H58.947L53.443 14.424H46.083V23H44.451ZM46.083 12.92H54.051C55.0323 12.92 55.8857 12.6533 56.611 12.12C57.3363 11.5867 57.891 10.8933 58.275 10.04C58.6803 9.18667 58.883 8.28 58.883 7.32C58.883 6.33867 58.6483 5.432 58.179 4.6C57.731 3.74667 57.123 3.064 56.355 2.552C55.6083 2.01867 54.7657 1.752 53.827 1.752H46.083V12.92ZM69.7123 23V0.279999H71.3443V23H69.7123ZM81.786 23V0.279999H89.338C91.7487 0.279999 93.7433 0.791999 95.322 1.816C96.922 2.81867 98.1167 4.184 98.906 5.912C99.7167 7.61867 100.122 9.51733 100.122 11.608C100.122 13.912 99.6847 15.9173 98.81 17.624C97.9353 19.3307 96.6873 20.6533 95.066 21.592C93.4447 22.5307 91.5353 23 89.338 23H81.786ZM98.49 11.608C98.49 9.70933 98.1273 8.01333 97.402 6.52C96.698 5.02667 95.6633 3.864 94.298 3.032C92.954 2.17867 91.3007 1.752 89.338 1.752H83.418V21.528H89.338C91.322 21.528 92.9967 21.0907 94.362 20.216C95.7273 19.3413 96.7513 18.1573 97.434 16.664C98.138 15.1493 98.49 13.464 98.49 11.608ZM109.079 23V0.279999H110.711V23H109.079ZM128.288 0.279999H129.696L139.296 23H137.568L134.4 15.512H123.552L120.384 23H118.624L128.288 0.279999ZM133.952 14.168L128.992 2.264L123.936 14.168H133.952ZM148.858 3.32V23H147.226V0.279999H148.57L164.41 20.28V0.279999H166.042V23H164.442L148.858 3.32Z" fill="black"/>
<path d="M91.9013 36.424C91.9013 36.788 91.8313 37.1287 91.6913 37.446C91.5513 37.754 91.36 38.0247 91.1173 38.258C90.8747 38.4913 90.59 38.6733 90.2633 38.804C89.9367 38.9347 89.5913 39 89.2273 39H84.5793V29.06H89.2133C89.5587 29.06 89.8713 29.1347 90.1513 29.284C90.4313 29.4333 90.6693 29.6293 90.8653 29.872C91.0613 30.1053 91.2107 30.376 91.3133 30.684C91.4253 30.9827 91.4813 31.286 91.4813 31.594C91.4813 32.098 91.3553 32.56 91.1033 32.98C90.8513 33.4 90.5013 33.708 90.0533 33.904C90.6227 34.072 91.0707 34.3893 91.3973 34.856C91.7333 35.3133 91.9013 35.836 91.9013 36.424ZM91.1873 36.326C91.1873 36.0647 91.1407 35.8127 91.0473 35.57C90.954 35.318 90.8233 35.0987 90.6553 34.912C90.4873 34.716 90.2867 34.562 90.0533 34.45C89.8293 34.338 89.5867 34.282 89.3253 34.282H85.2933V38.356H89.2273C89.5073 38.356 89.764 38.3 89.9973 38.188C90.24 38.076 90.4453 37.9267 90.6133 37.74C90.7907 37.544 90.9307 37.3247 91.0333 37.082C91.136 36.8393 91.1873 36.5873 91.1873 36.326ZM85.2933 29.704V33.68H88.9333C89.204 33.68 89.4513 33.624 89.6753 33.512C89.8993 33.4 90.0907 33.2553 90.2493 33.078C90.4173 32.8913 90.548 32.6767 90.6413 32.434C90.7347 32.1913 90.7813 31.944 90.7813 31.692C90.7813 31.4213 90.7347 31.1693 90.6413 30.936C90.5573 30.6933 90.436 30.4833 90.2773 30.306C90.128 30.1193 89.946 29.9747 89.7313 29.872C89.5167 29.76 89.2787 29.704 89.0173 29.704H85.2933ZM93.1867 29.06L96.6587 34.562L100.145 29.06H100.943L97.0227 35.248V39H96.3087V35.22L92.4027 29.06H93.1867ZM105.62 39V29.06H109.708C110.128 29.06 110.516 29.1487 110.87 29.326C111.225 29.5033 111.528 29.7413 111.78 30.04C112.042 30.3293 112.242 30.6607 112.382 31.034C112.532 31.398 112.606 31.7667 112.606 32.14C112.606 32.5413 112.536 32.9287 112.396 33.302C112.266 33.6753 112.074 34.0067 111.822 34.296C111.58 34.5853 111.286 34.8187 110.94 34.996C110.595 35.164 110.212 35.248 109.792 35.248H106.334V39H105.62ZM106.334 34.59H109.764C110.091 34.59 110.385 34.5247 110.646 34.394C110.908 34.254 111.127 34.072 111.304 33.848C111.491 33.6147 111.631 33.3533 111.724 33.064C111.827 32.7653 111.878 32.4573 111.878 32.14C111.878 31.8133 111.818 31.5053 111.696 31.216C111.584 30.9173 111.426 30.656 111.22 30.432C111.024 30.208 110.791 30.0307 110.52 29.9C110.259 29.7693 109.979 29.704 109.68 29.704H106.334V34.59ZM114.316 39V29.06H118.446C118.866 29.06 119.253 29.1487 119.608 29.326C119.962 29.5033 120.266 29.7413 120.518 30.04C120.779 30.3293 120.98 30.6607 121.12 31.034C121.269 31.398 121.344 31.7667 121.344 32.14C121.344 32.504 121.288 32.8587 121.176 33.204C121.064 33.54 120.905 33.8433 120.7 34.114C120.494 34.3847 120.247 34.6087 119.958 34.786C119.668 34.9633 119.351 35.08 119.006 35.136L121.484 39H120.658L118.25 35.248H115.03V39H114.316ZM115.03 34.59H118.516C118.833 34.59 119.122 34.52 119.384 34.38C119.645 34.24 119.869 34.058 120.056 33.834C120.242 33.6007 120.382 33.3393 120.476 33.05C120.578 32.7513 120.63 32.448 120.63 32.14C120.63 31.8227 120.569 31.5193 120.448 31.23C120.336 30.9313 120.177 30.67 119.972 30.446C119.776 30.222 119.542 30.0447 119.272 29.914C119.01 29.774 118.726 29.704 118.418 29.704H115.03V34.59ZM127.369 39.07C126.679 39.07 126.049 38.9253 125.479 38.636C124.91 38.3467 124.42 37.9687 124.009 37.502C123.599 37.0353 123.281 36.4987 123.057 35.892C122.833 35.2853 122.721 34.6647 122.721 34.03C122.721 33.3673 122.838 32.7327 123.071 32.126C123.314 31.5193 123.641 30.9827 124.051 30.516C124.471 30.0493 124.966 29.6807 125.535 29.41C126.105 29.13 126.721 28.99 127.383 28.99C128.074 28.99 128.704 29.1393 129.273 29.438C129.852 29.7273 130.342 30.11 130.743 30.586C131.154 31.062 131.471 31.6033 131.695 32.21C131.919 32.8073 132.031 33.414 132.031 34.03C132.031 34.702 131.91 35.3413 131.667 35.948C131.434 36.5547 131.107 37.0913 130.687 37.558C130.277 38.0153 129.787 38.384 129.217 38.664C128.648 38.9347 128.032 39.07 127.369 39.07ZM123.435 34.03C123.435 34.5993 123.529 35.15 123.715 35.682C123.911 36.2047 124.182 36.6713 124.527 37.082C124.882 37.4833 125.302 37.8053 125.787 38.048C126.273 38.2907 126.805 38.412 127.383 38.412C127.981 38.412 128.517 38.286 128.993 38.034C129.479 37.782 129.889 37.4507 130.225 37.04C130.571 36.62 130.837 36.1487 131.023 35.626C131.21 35.1033 131.303 34.5713 131.303 34.03C131.303 33.4607 131.205 32.9147 131.009 32.392C130.813 31.86 130.538 31.3933 130.183 30.992C129.838 30.5813 129.427 30.2547 128.951 30.012C128.475 29.7693 127.953 29.648 127.383 29.648C126.786 29.648 126.245 29.774 125.759 30.026C125.274 30.278 124.859 30.614 124.513 31.034C124.168 31.4447 123.902 31.9113 123.715 32.434C123.529 32.9567 123.435 33.4887 123.435 34.03ZM140.428 29.704H136.788V39H136.074V29.704H132.434V29.06H140.428V29.704ZM148.596 38.356V39H141.974V29.06H148.47V29.704H142.688V33.61H147.742V34.226H142.688V38.356H148.596ZM149.655 33.96C149.655 33.3627 149.758 32.77 149.963 32.182C150.178 31.5847 150.486 31.0527 150.887 30.586C151.288 30.1193 151.778 29.7413 152.357 29.452C152.945 29.1533 153.612 29.004 154.359 29.004C155.246 29.004 156.002 29.2093 156.627 29.62C157.252 30.0213 157.719 30.5393 158.027 31.174L157.439 31.51C157.262 31.1647 157.052 30.8753 156.809 30.642C156.576 30.4087 156.319 30.222 156.039 30.082C155.768 29.9327 155.484 29.8253 155.185 29.76C154.886 29.6947 154.592 29.662 154.303 29.662C153.668 29.662 153.108 29.7927 152.623 30.054C152.138 30.306 151.727 30.6373 151.391 31.048C151.055 31.4587 150.798 31.9253 150.621 32.448C150.453 32.9613 150.369 33.4793 150.369 34.002C150.369 34.59 150.472 35.15 150.677 35.682C150.882 36.214 151.162 36.6853 151.517 37.096C151.872 37.4973 152.292 37.8193 152.777 38.062C153.262 38.3047 153.785 38.426 154.345 38.426C154.644 38.426 154.952 38.3887 155.269 38.314C155.586 38.2393 155.89 38.1227 156.179 37.964C156.468 37.8053 156.739 37.6047 156.991 37.362C157.243 37.11 157.453 36.816 157.621 36.48L158.237 36.774C158.069 37.1473 157.84 37.4787 157.551 37.768C157.262 38.0573 156.94 38.3 156.585 38.496C156.23 38.692 155.852 38.8413 155.451 38.944C155.059 39.0373 154.672 39.084 154.289 39.084C153.608 39.084 152.982 38.9347 152.413 38.636C151.853 38.3373 151.368 37.95 150.957 37.474C150.546 36.9887 150.224 36.4427 149.991 35.836C149.767 35.22 149.655 34.5947 149.655 33.96ZM167.707 29.06V39H166.993V34.24H160.721V39H160.007V29.06H160.721V33.596H166.993V29.06H167.707Z" fill="black"/>
</svg>
