<svg width="24" height="24" viewBox="0 0 24 24" fill="none" xmlns="http://www.w3.org/2000/svg">
<path d="M22.3125 13.9978C22.3125 15.4744 22.0247 16.7325 21.48 17.6362C20.8191 18.7331 19.7925 19.3125 18.51 19.3125C16.0031 19.3125 14.1694 15.8897 12.2288 12.2653C10.6069 9.24094 8.77031 5.8125 6.9375 5.8125C4.755 5.8125 2.8125 10.3903 2.8125 13.9978C2.8125 15.27 3.045 16.3266 3.48375 17.0559C3.94313 17.8172 4.59938 18.1875 5.49 18.1875C7.005 18.1875 8.51906 15.8381 9.8025 13.5403C9.88112 13.4227 10.0012 13.339 10.1387 13.306C10.2763 13.2729 10.4213 13.2929 10.5448 13.362C10.6682 13.431 10.7612 13.5441 10.805 13.6786C10.8488 13.8132 10.8403 13.9593 10.7812 14.0878C9.375 16.6153 7.6875 19.3125 5.49 19.3125C4.20844 19.3125 3.18094 18.7331 2.52 17.6362C1.97531 16.7325 1.6875 15.4744 1.6875 13.9978C1.6875 10.2019 3.73219 4.6875 6.9375 4.6875C9.44438 4.6875 11.2781 8.11031 13.2188 11.7347C14.8397 14.7591 16.6763 18.1875 18.51 18.1875C19.4006 18.1875 20.0569 17.8172 20.5163 17.0559C20.955 16.3266 21.1875 15.27 21.1875 13.9978C21.1875 10.3903 19.2459 5.8125 17.0625 5.8125C16.2188 5.8125 15.2897 6.54 14.2369 8.03719C14.151 8.15927 14.0201 8.24223 13.873 8.26781C13.7259 8.29339 13.5747 8.2595 13.4527 8.17359C13.3306 8.08769 13.2476 7.9568 13.222 7.80974C13.1965 7.66267 13.2303 7.51146 13.3162 7.38937C14.1328 6.22969 15.4097 4.6875 17.0625 4.6875C20.2678 4.6875 22.3125 10.2019 22.3125 13.9978Z" fill="black"/>
</svg>
