<svg width="168" height="48" viewBox="0 0 168 48" fill="none" xmlns="http://www.w3.org/2000/svg">
<rect width="168" height="48" rx="24" fill="#DBD7CB"/>
<g clip-path="url(#clip0_900_387)">
<path d="M30.5862 21.8755L21.9995 13.3333L13.4129 21.8755C13.3116 21.9526 13.228 22.0506 13.1679 22.1629C13.1077 22.2751 13.0724 22.399 13.0643 22.5261C13.0562 22.6531 13.0755 22.7805 13.1209 22.8995C13.1663 23.0184 13.2367 23.1263 13.3274 23.2157C13.418 23.3051 13.5269 23.3739 13.6465 23.4176C13.7661 23.4613 13.8937 23.4788 14.0207 23.4688C14.1476 23.4589 14.2709 23.4218 14.3823 23.3601C14.4937 23.2984 14.5905 23.2134 14.6662 23.111L21.1106 16.7199V33.7244C21.1106 33.9601 21.2043 34.1862 21.371 34.3529C21.5377 34.5196 21.7638 34.6133 21.9995 34.6133C22.2353 34.6133 22.4614 34.5196 22.6281 34.3529C22.7948 34.1862 22.8884 33.9601 22.8884 33.7244V16.7199L29.3329 23.111C29.5002 23.2772 29.7268 23.3701 29.9627 23.3693C30.1986 23.3685 30.4244 23.274 30.5906 23.1066C30.7568 22.9392 30.8497 22.7127 30.8489 22.4768C30.8481 22.2409 30.7536 22.015 30.5862 21.8488V21.8755Z" fill="black"/>
</g>
<path d="M51.5217 18.836H46.9677V30.5H45.7077V18.836H41.1537V17.72H51.5217V18.836ZM53.436 30.5V17.72H54.696V30.5H53.436ZM57.9008 30.5V17.72H59.1608V29.384H66.5408V30.5H57.9008ZM68.395 30.5V17.72H69.655V29.384H77.035V30.5H68.395ZM91.4943 18.836H86.9403V30.5H85.6803V18.836H81.1263V17.72H91.4943V18.836ZM98.1172 30.59C97.2172 30.59 96.4012 30.41 95.6692 30.05C94.9372 29.69 94.3072 29.204 93.7792 28.592C93.2512 27.968 92.8432 27.272 92.5552 26.504C92.2672 25.724 92.1232 24.926 92.1232 24.11C92.1232 23.258 92.2732 22.448 92.5732 21.68C92.8732 20.9 93.2932 20.21 93.8332 19.61C94.3852 18.998 95.0272 18.518 95.7592 18.17C96.4912 17.81 97.2832 17.63 98.1352 17.63C99.0352 17.63 99.8512 17.816 100.583 18.188C101.315 18.56 101.939 19.058 102.455 19.682C102.983 20.306 103.391 21.002 103.679 21.77C103.967 22.538 104.111 23.324 104.111 24.128C104.111 24.98 103.961 25.796 103.661 26.576C103.361 27.344 102.941 28.034 102.401 28.646C101.861 29.246 101.225 29.72 100.493 30.068C99.7612 30.416 98.9692 30.59 98.1172 30.59ZM93.3832 24.11C93.3832 24.806 93.4972 25.478 93.7252 26.126C93.9532 26.762 94.2772 27.332 94.6972 27.836C95.1172 28.328 95.6152 28.724 96.1912 29.024C96.7792 29.312 97.4212 29.456 98.1172 29.456C98.8492 29.456 99.5032 29.306 100.079 29.006C100.667 28.694 101.165 28.286 101.573 27.782C101.993 27.266 102.311 26.69 102.527 26.054C102.743 25.418 102.851 24.77 102.851 24.11C102.851 23.414 102.737 22.748 102.509 22.112C102.281 21.476 101.951 20.906 101.519 20.402C101.099 19.898 100.601 19.502 100.025 19.214C99.4492 18.926 98.8132 18.782 98.1172 18.782C97.3972 18.782 96.7432 18.932 96.1552 19.232C95.5792 19.532 95.0812 19.94 94.6612 20.456C94.2532 20.96 93.9352 21.53 93.7072 22.166C93.4912 22.802 93.3832 23.45 93.3832 24.11ZM106.487 30.5V17.72H111.779C112.331 17.72 112.835 17.834 113.291 18.062C113.759 18.29 114.161 18.602 114.497 18.998C114.833 19.382 115.097 19.814 115.289 20.294C115.481 20.762 115.577 21.242 115.577 21.734C115.577 22.43 115.421 23.09 115.109 23.714C114.809 24.326 114.383 24.824 113.831 25.208C113.279 25.592 112.631 25.784 111.887 25.784H107.747V30.5H106.487ZM107.747 24.668H111.833C112.337 24.668 112.775 24.53 113.147 24.254C113.519 23.978 113.807 23.618 114.011 23.174C114.215 22.73 114.317 22.25 114.317 21.734C114.317 21.206 114.197 20.72 113.957 20.276C113.717 19.832 113.399 19.484 113.003 19.232C112.619 18.968 112.193 18.836 111.725 18.836H107.747V24.668ZM117.684 30.5V17.72H122.976C123.528 17.72 124.032 17.834 124.488 18.062C124.956 18.29 125.358 18.602 125.694 18.998C126.03 19.382 126.294 19.814 126.486 20.294C126.678 20.762 126.774 21.242 126.774 21.734C126.774 22.43 126.618 23.09 126.306 23.714C126.006 24.326 125.58 24.824 125.028 25.208C124.476 25.592 123.828 25.784 123.084 25.784H118.944V30.5H117.684ZM118.944 24.668H123.03C123.534 24.668 123.972 24.53 124.344 24.254C124.716 23.978 125.004 23.618 125.208 23.174C125.412 22.73 125.514 22.25 125.514 21.734C125.514 21.206 125.394 20.72 125.154 20.276C124.914 19.832 124.596 19.484 124.2 19.232C123.816 18.968 123.39 18.836 122.922 18.836H118.944V24.668ZM137.467 29.384V30.5H128.881V17.72H137.305V18.836H130.141V23.444H136.387V24.506H130.141V29.384H137.467ZM141.11 20.042V30.5H139.85V17.72H140.894L149.282 28.376V17.738H150.542V30.5H149.372L141.11 20.042Z" fill="black"/>
<defs>
<clipPath id="clip0_900_387">
<rect width="32" height="32" fill="white" transform="translate(6 8)"/>
</clipPath>
</defs>
</svg>
