<svg width="32" height="32" viewBox="0 0 32 32" fill="none" xmlns="http://www.w3.org/2000/svg">
<g clip-path="url(#clip0_901_393)">
<rect width="32" height="32" rx="16" fill="#DBD7CB"/>
<path d="M24.5862 13.8755L15.9995 5.33325L7.41286 13.8755C7.31155 13.9526 7.228 14.0506 7.16787 14.1629C7.10773 14.2751 7.07241 14.399 7.0643 14.5261C7.0562 14.6531 7.07549 14.7805 7.12087 14.8995C7.16625 15.0184 7.23667 15.1263 7.32736 15.2157C7.41804 15.3051 7.52687 15.3739 7.64649 15.4176C7.7661 15.4613 7.8937 15.4788 8.02065 15.4688C8.14761 15.4589 8.27094 15.4218 8.38232 15.3601C8.49369 15.2984 8.5905 15.2134 8.6662 15.111L15.1106 8.71992V25.7244C15.1106 25.9601 15.2043 26.1862 15.371 26.3529C15.5377 26.5196 15.7638 26.6133 15.9995 26.6133C16.2353 26.6133 16.4614 26.5196 16.6281 26.3529C16.7948 26.1862 16.8884 25.9601 16.8884 25.7244V8.71992L23.3329 15.111C23.5002 15.2772 23.7268 15.3701 23.9627 15.3693C24.1986 15.3685 24.4244 15.274 24.5906 15.1066C24.7568 14.9392 24.8497 14.7127 24.8489 14.4768C24.8481 14.2409 24.7536 14.015 24.5862 13.8488V13.8755Z" fill="black"/>
</g>
<defs>
<clipPath id="clip0_901_393">
<rect width="32" height="32" rx="16" fill="white"/>
</clipPath>
</defs>
</svg>
