<svg width="176" height="48" viewBox="0 0 176 48" fill="none" xmlns="http://www.w3.org/2000/svg">
<rect width="176" height="48" rx="24" fill="#D9D9D9"/>
<g clip-path="url(#clip0_500_1533)">
<path d="M35.5867 21.8757L27 13.3335L18.4134 21.8757C18.312 21.9529 18.2285 22.0509 18.1684 22.1631C18.1082 22.2754 18.0729 22.3992 18.0648 22.5263C18.0567 22.6534 18.076 22.7807 18.1214 22.8997C18.1667 23.0187 18.2372 23.1265 18.3278 23.2159C18.4185 23.3053 18.5274 23.3742 18.647 23.4179C18.7666 23.4615 18.8942 23.479 19.0211 23.4691C19.1481 23.4592 19.2714 23.4221 19.3828 23.3604C19.4942 23.2986 19.591 23.2137 19.6667 23.1113L26.1111 16.7202V33.7246C26.1111 33.9604 26.2048 34.1864 26.3715 34.3531C26.5382 34.5198 26.7643 34.6135 27 34.6135C27.2358 34.6135 27.4619 34.5198 27.6286 34.3531C27.7953 34.1864 27.8889 33.9604 27.8889 33.7246V16.7202L34.3334 23.1113C34.5007 23.2775 34.7273 23.3704 34.9632 23.3695C35.199 23.3687 35.4249 23.2742 35.5911 23.1068C35.7573 22.9394 35.8502 22.7129 35.8494 22.477C35.8486 22.2411 35.7541 22.0153 35.5867 21.8491V21.8757Z" fill="black"/>
</g>
<path d="M58.0217 18.836H53.4677V30.5H52.2077V18.836H47.6537V17.72H58.0217V18.836ZM59.936 30.5V17.72H61.196V30.5H59.936ZM64.4008 30.5V17.72H65.6608V29.384H73.0408V30.5H64.4008ZM74.895 30.5V17.72H76.155V29.384H83.535V30.5H74.895ZM97.9943 18.836H93.4403V30.5H92.1803V18.836H87.6263V17.72H97.9943V18.836ZM104.617 30.59C103.717 30.59 102.901 30.41 102.169 30.05C101.437 29.69 100.807 29.204 100.279 28.592C99.7512 27.968 99.3432 27.272 99.0552 26.504C98.7672 25.724 98.6232 24.926 98.6232 24.11C98.6232 23.258 98.7732 22.448 99.0732 21.68C99.3732 20.9 99.7932 20.21 100.333 19.61C100.885 18.998 101.527 18.518 102.259 18.17C102.991 17.81 103.783 17.63 104.635 17.63C105.535 17.63 106.351 17.816 107.083 18.188C107.815 18.56 108.439 19.058 108.955 19.682C109.483 20.306 109.891 21.002 110.179 21.77C110.467 22.538 110.611 23.324 110.611 24.128C110.611 24.98 110.461 25.796 110.161 26.576C109.861 27.344 109.441 28.034 108.901 28.646C108.361 29.246 107.725 29.72 106.993 30.068C106.261 30.416 105.469 30.59 104.617 30.59ZM99.8832 24.11C99.8832 24.806 99.9972 25.478 100.225 26.126C100.453 26.762 100.777 27.332 101.197 27.836C101.617 28.328 102.115 28.724 102.691 29.024C103.279 29.312 103.921 29.456 104.617 29.456C105.349 29.456 106.003 29.306 106.579 29.006C107.167 28.694 107.665 28.286 108.073 27.782C108.493 27.266 108.811 26.69 109.027 26.054C109.243 25.418 109.351 24.77 109.351 24.11C109.351 23.414 109.237 22.748 109.009 22.112C108.781 21.476 108.451 20.906 108.019 20.402C107.599 19.898 107.101 19.502 106.525 19.214C105.949 18.926 105.313 18.782 104.617 18.782C103.897 18.782 103.243 18.932 102.655 19.232C102.079 19.532 101.581 19.94 101.161 20.456C100.753 20.96 100.435 21.53 100.207 22.166C99.9912 22.802 99.8832 23.45 99.8832 24.11ZM112.987 30.5V17.72H118.279C118.831 17.72 119.335 17.834 119.791 18.062C120.259 18.29 120.661 18.602 120.997 18.998C121.333 19.382 121.597 19.814 121.789 20.294C121.981 20.762 122.077 21.242 122.077 21.734C122.077 22.43 121.921 23.09 121.609 23.714C121.309 24.326 120.883 24.824 120.331 25.208C119.779 25.592 119.131 25.784 118.387 25.784H114.247V30.5H112.987ZM114.247 24.668H118.333C118.837 24.668 119.275 24.53 119.647 24.254C120.019 23.978 120.307 23.618 120.511 23.174C120.715 22.73 120.817 22.25 120.817 21.734C120.817 21.206 120.697 20.72 120.457 20.276C120.217 19.832 119.899 19.484 119.503 19.232C119.119 18.968 118.693 18.836 118.225 18.836H114.247V24.668ZM124.184 30.5V17.72H129.476C130.028 17.72 130.532 17.834 130.988 18.062C131.456 18.29 131.858 18.602 132.194 18.998C132.53 19.382 132.794 19.814 132.986 20.294C133.178 20.762 133.274 21.242 133.274 21.734C133.274 22.43 133.118 23.09 132.806 23.714C132.506 24.326 132.08 24.824 131.528 25.208C130.976 25.592 130.328 25.784 129.584 25.784H125.444V30.5H124.184ZM125.444 24.668H129.53C130.034 24.668 130.472 24.53 130.844 24.254C131.216 23.978 131.504 23.618 131.708 23.174C131.912 22.73 132.014 22.25 132.014 21.734C132.014 21.206 131.894 20.72 131.654 20.276C131.414 19.832 131.096 19.484 130.7 19.232C130.316 18.968 129.89 18.836 129.422 18.836H125.444V24.668ZM143.967 29.384V30.5H135.381V17.72H143.805V18.836H136.641V23.444H142.887V24.506H136.641V29.384H143.967ZM147.61 20.042V30.5H146.35V17.72H147.394L155.782 28.376V17.738H157.042V30.5H155.872L147.61 20.042Z" fill="black"/>
<defs>
<clipPath id="clip0_500_1533">
<rect x="11" y="8" width="32" height="32" rx="16" fill="white"/>
</clipPath>
</defs>
</svg>
