<svg width="160" height="48" viewBox="0 0 160 48" fill="none" xmlns="http://www.w3.org/2000/svg">
<rect width="160" height="48" rx="24" fill="#3C3C3C"/>
<path d="M53.9109 32.5L52.0869 27.292H44.9589L43.1349 32.5H41.6949L47.6229 15.748H49.4709L55.4229 32.5H53.9109ZM48.5589 17.116H48.4629L45.3189 26.044H51.7029L48.5589 17.116ZM59.8869 17.716H59.8149V32.5H58.4229V15.748H60.2229L69.0309 30.532H69.1029V15.748H70.4949V32.5H68.6949L59.8869 17.716ZM88.403 17.596H88.307L82.523 27.844L76.739 17.596H76.643V32.5H75.251V15.748H77.219L82.523 25.18H82.595L87.899 15.748H89.795V32.5H88.403V17.596ZM105.028 32.5L103.204 27.292H96.0761L94.2521 32.5H92.8121L98.7401 15.748H100.588L106.54 32.5H105.028ZM99.6761 17.116H99.5801L96.4361 26.044H102.82L99.6761 17.116ZM97.4681 13.3C97.1321 13.3 96.8841 13.22 96.7241 13.06C96.5801 12.884 96.5081 12.668 96.5081 12.412V12.172C96.5081 11.916 96.5801 11.708 96.7241 11.548C96.8841 11.372 97.1321 11.284 97.4681 11.284C97.7881 11.284 98.0201 11.372 98.1641 11.548C98.3241 11.708 98.4041 11.916 98.4041 12.172V12.412C98.4041 12.668 98.3241 12.884 98.1641 13.06C98.0201 13.22 97.7881 13.3 97.4681 13.3ZM101.884 13.3C101.564 13.3 101.324 13.22 101.164 13.06C101.02 12.884 100.948 12.668 100.948 12.412V12.172C100.948 11.916 101.02 11.708 101.164 11.548C101.324 11.372 101.564 11.284 101.884 11.284C102.22 11.284 102.46 11.372 102.604 11.548C102.764 11.708 102.844 11.916 102.844 12.172V12.412C102.844 12.668 102.764 12.884 102.604 13.06C102.46 13.22 102.22 13.3 101.884 13.3ZM109.54 32.5V15.748H110.98V31.228H118.372V32.5H109.54Z" fill="white"/>
</svg>
