<svg width="189" height="48" viewBox="0 0 189 48" fill="none" xmlns="http://www.w3.org/2000/svg">
<rect width="189" height="48" rx="24" fill="#3C3C3C"/>
<path d="M47.2076 32.5L41.5916 15.748H43.1516L48.0956 31.036H48.1916L53.1836 15.748H54.6956L49.0316 32.5H47.2076ZM67.239 32.5L65.415 27.292H58.287L56.463 32.5H55.023L60.951 15.748H62.799L68.751 32.5H67.239ZM61.887 17.116H61.791L58.647 26.044H65.031L61.887 17.116ZM61.887 14.38C61.151 14.38 60.543 14.148 60.063 13.684C59.583 13.204 59.343 12.588 59.343 11.836C59.343 11.1 59.583 10.5 60.063 10.036C60.543 9.556 61.151 9.316 61.887 9.316C62.623 9.316 63.231 9.556 63.711 10.036C64.191 10.5 64.431 11.1 64.431 11.836C64.431 12.588 64.191 13.204 63.711 13.684C63.231 14.148 62.623 14.38 61.887 14.38ZM61.887 13.492C62.351 13.492 62.719 13.364 62.991 13.108C63.263 12.852 63.399 12.5 63.399 12.052V11.644C63.399 11.18 63.263 10.828 62.991 10.588C62.719 10.332 62.351 10.204 61.887 10.204C61.423 10.204 61.055 10.332 60.783 10.588C60.511 10.828 60.375 11.18 60.375 11.644V12.052C60.375 12.5 60.511 12.852 60.783 13.108C61.055 13.364 61.423 13.492 61.887 13.492ZM73.191 32.5H71.751V15.748H78.327C79.767 15.748 80.871 16.156 81.639 16.972C82.423 17.788 82.815 18.932 82.815 20.404C82.815 21.7 82.495 22.748 81.855 23.548C81.231 24.348 80.319 24.828 79.119 24.988L83.247 32.5H81.639L77.631 25.084H73.191V32.5ZM78.327 23.86C79.287 23.86 80.015 23.596 80.511 23.068C81.023 22.524 81.279 21.836 81.279 21.004V19.852C81.279 19.036 81.023 18.364 80.511 17.836C80.015 17.292 79.287 17.02 78.327 17.02H73.191V23.86H78.327ZM94.1207 32.5H92.6807V15.748H99.2567C100.697 15.748 101.801 16.156 102.569 16.972C103.353 17.788 103.745 18.932 103.745 20.404C103.745 21.7 103.425 22.748 102.785 23.548C102.161 24.348 101.249 24.828 100.049 24.988L104.177 32.5H102.569L98.5607 25.084H94.1207V32.5ZM99.2567 23.86C100.217 23.86 100.945 23.596 101.441 23.068C101.953 22.524 102.209 21.836 102.209 21.004V19.852C102.209 19.036 101.953 18.364 101.441 17.836C100.945 17.292 100.217 17.02 99.2567 17.02H94.1207V23.86H99.2567ZM107.939 32.5V15.748H117.731V17.02H109.379V23.356H117.323V24.628H109.379V31.228H117.731V32.5H107.939ZM126.16 32.788C124.784 32.788 123.632 32.532 122.704 32.02C121.792 31.492 121.008 30.796 120.352 29.932L121.432 29.044C122.024 29.828 122.688 30.436 123.424 30.868C124.176 31.3 125.104 31.516 126.208 31.516C127.504 31.516 128.496 31.212 129.184 30.604C129.888 29.98 130.24 29.116 130.24 28.012C130.24 26.988 129.944 26.236 129.352 25.756C128.76 25.276 127.928 24.924 126.856 24.7L125.368 24.388C123.768 24.068 122.608 23.532 121.888 22.78C121.168 22.028 120.808 21.068 120.808 19.9C120.808 19.164 120.936 18.524 121.192 17.98C121.448 17.42 121.808 16.956 122.272 16.588C122.752 16.22 123.32 15.94 123.976 15.748C124.648 15.556 125.384 15.46 126.184 15.46C127.432 15.46 128.488 15.684 129.352 16.132C130.216 16.58 130.928 17.212 131.488 18.028L130.408 18.82C129.944 18.148 129.36 17.636 128.656 17.284C127.968 16.916 127.12 16.732 126.112 16.732C124.912 16.732 123.96 16.996 123.256 17.524C122.568 18.036 122.224 18.812 122.224 19.852C122.224 20.844 122.536 21.572 123.16 22.036C123.784 22.5 124.616 22.836 125.656 23.044L127.144 23.356C128.808 23.724 129.976 24.292 130.648 25.06C131.32 25.828 131.656 26.788 131.656 27.94C131.656 29.476 131.168 30.668 130.192 31.516C129.216 32.364 127.872 32.788 126.16 32.788ZM145.848 32.5L144.024 27.292H136.896L135.072 32.5H133.632L139.56 15.748H141.408L147.36 32.5H145.848ZM140.496 17.116H140.4L137.256 26.044H143.64L140.496 17.116Z" fill="white"/>
</svg>
