<svg width="168" height="48" viewBox="0 0 168 48" fill="none" xmlns="http://www.w3.org/2000/svg">
<rect width="168" height="48" rx="24" fill="#3C3C3C"/>
<path d="M49.2431 32.788C47.1631 32.788 45.5551 32.068 44.4191 30.628C43.2831 29.172 42.7151 27.02 42.7151 24.172C42.7151 21.34 43.2831 19.18 44.4191 17.692C45.5551 16.204 47.1631 15.46 49.2431 15.46C50.5871 15.46 51.7151 15.78 52.6271 16.42C53.5551 17.06 54.2751 17.932 54.7871 19.036L53.6111 19.732C53.2431 18.82 52.6831 18.1 51.9311 17.572C51.1951 17.028 50.2991 16.756 49.2431 16.756C47.6751 16.756 46.4511 17.316 45.5711 18.436C44.6911 19.556 44.2511 21.156 44.2511 23.236V25.132C44.2511 27.196 44.6911 28.772 45.5711 29.86C46.4511 30.948 47.6751 31.492 49.2431 31.492C50.3631 31.492 51.2991 31.212 52.0511 30.652C52.8031 30.076 53.3631 29.308 53.7311 28.348L54.9071 29.044C54.4111 30.196 53.6831 31.108 52.7231 31.78C51.7631 32.452 50.6031 32.788 49.2431 32.788ZM62.1133 32.5V25.708L56.3293 15.748H57.9613L62.8093 24.196H62.8813L67.7293 15.748H69.3613L63.5533 25.636V32.5H62.1133ZM76.278 23.86L73.566 26.86V32.5H72.126V15.748H73.566V25.18H73.614L76.302 22.084L81.822 15.748H83.574L77.262 22.876L83.886 32.5H82.11L76.278 23.86ZM86.7744 32.5V15.748H96.5664V17.02H88.2144V23.356H96.1584V24.628H88.2144V31.228H96.5664V32.5H86.7744ZM100.556 32.5V15.748H101.996V31.228H109.388V32.5H100.556ZM113.809 17.716H113.737V32.5H112.345V15.748H114.145L122.953 30.532H123.025V15.748H124.417V32.5H122.617L113.809 17.716Z" fill="white"/>
</svg>
