<svg width="207" height="48" viewBox="0 0 207 48" fill="none" xmlns="http://www.w3.org/2000/svg">
<rect width="207" height="48" rx="24" fill="#3C3C3C"/>
<path d="M48.8446 17.02V32.5H47.4046V17.02H41.7886V15.748H54.4606V17.02H48.8446ZM56.3675 32.5V31.3H58.8155V16.948H56.3675V15.748H62.7035V16.948H60.2555V31.3H62.7035V32.5H56.3675ZM66.583 32.5V15.748H68.023V31.228H75.415V32.5H66.583ZM78.3721 32.5V15.748H79.8121V31.228H87.2041V32.5H78.3721ZM90.1612 15.748H96.7132C98.0252 15.748 99.0492 16.124 99.7852 16.876C100.537 17.612 100.913 18.644 100.913 19.972C100.913 20.548 100.833 21.052 100.673 21.484C100.529 21.916 100.337 22.276 100.097 22.564C99.8572 22.852 99.5772 23.084 99.2572 23.26C98.9532 23.436 98.6492 23.556 98.3452 23.62V23.716C98.7292 23.764 99.1132 23.884 99.4972 24.076C99.8812 24.252 100.225 24.508 100.529 24.844C100.833 25.164 101.081 25.572 101.273 26.068C101.465 26.548 101.561 27.116 101.561 27.772C101.561 28.46 101.457 29.092 101.249 29.668C101.057 30.244 100.769 30.748 100.385 31.18C100.017 31.596 99.5692 31.924 99.0412 32.164C98.5292 32.388 97.9532 32.5 97.3132 32.5H90.1612V15.748ZM91.6012 31.228H96.9292C97.9372 31.228 98.7052 30.956 99.2332 30.412C99.7612 29.852 100.025 29.132 100.025 28.252V27.364C100.025 26.5 99.7612 25.796 99.2332 25.252C98.7052 24.692 97.9372 24.412 96.9292 24.412H91.6012V31.228ZM91.6012 23.164H96.5692C97.4812 23.164 98.1772 22.924 98.6572 22.444C99.1372 21.948 99.3772 21.316 99.3772 20.548V19.636C99.3772 18.868 99.1372 18.244 98.6572 17.764C98.1772 17.268 97.4812 17.02 96.5692 17.02H91.6012V23.164ZM105.466 32.5V15.748H115.258V17.02H106.906V23.356H114.85V24.628H106.906V31.228H115.258V32.5H105.466ZM129.879 24.628H120.687V32.5H119.247V15.748H120.687V23.356H129.879V15.748H131.319V32.5H129.879V24.628ZM142.075 32.788C139.931 32.788 138.251 32.06 137.035 30.604C135.819 29.132 135.211 26.972 135.211 24.124C135.211 21.276 135.819 19.124 137.035 17.668C138.251 16.196 139.931 15.46 142.075 15.46C144.203 15.46 145.875 16.196 147.091 17.668C148.307 19.14 148.915 21.292 148.915 24.124C148.915 26.956 148.307 29.108 147.091 30.58C145.875 32.052 144.203 32.788 142.075 32.788ZM142.075 31.492C142.875 31.492 143.595 31.356 144.235 31.084C144.891 30.796 145.451 30.38 145.915 29.836C146.379 29.292 146.739 28.628 146.995 27.844C147.251 27.06 147.379 26.172 147.379 25.18V23.068C147.379 22.076 147.251 21.188 146.995 20.404C146.739 19.62 146.379 18.964 145.915 18.436C145.451 17.892 144.891 17.476 144.235 17.188C143.595 16.9 142.875 16.756 142.075 16.756C141.275 16.756 140.547 16.9 139.891 17.188C139.235 17.476 138.675 17.892 138.211 18.436C137.747 18.964 137.387 19.62 137.131 20.404C136.875 21.188 136.747 22.076 136.747 23.068V25.18C136.747 26.172 136.875 27.06 137.131 27.844C137.387 28.628 137.747 29.292 138.211 29.836C138.675 30.38 139.235 30.796 139.891 31.084C140.547 31.356 141.275 31.492 142.075 31.492ZM139.867 13.3C139.531 13.3 139.283 13.22 139.123 13.06C138.979 12.884 138.907 12.668 138.907 12.412V12.172C138.907 11.916 138.979 11.708 139.123 11.548C139.283 11.372 139.531 11.284 139.867 11.284C140.187 11.284 140.419 11.372 140.563 11.548C140.723 11.708 140.803 11.916 140.803 12.172V12.412C140.803 12.668 140.723 12.884 140.563 13.06C140.419 13.22 140.187 13.3 139.867 13.3ZM144.283 13.3C143.963 13.3 143.723 13.22 143.563 13.06C143.419 12.884 143.347 12.668 143.347 12.412V12.172C143.347 11.916 143.419 11.708 143.563 11.548C143.723 11.372 143.963 11.284 144.283 11.284C144.619 11.284 144.859 11.372 145.003 11.548C145.163 11.708 145.243 11.916 145.243 12.172V12.412C145.243 12.668 145.163 12.884 145.003 13.06C144.859 13.22 144.619 13.3 144.283 13.3ZM154.25 32.5H152.81V15.748H159.386C160.826 15.748 161.93 16.156 162.698 16.972C163.482 17.788 163.874 18.932 163.874 20.404C163.874 21.7 163.554 22.748 162.914 23.548C162.29 24.348 161.378 24.828 160.178 24.988L164.306 32.5H162.698L158.69 25.084H154.25V32.5ZM159.386 23.86C160.346 23.86 161.074 23.596 161.57 23.068C162.082 22.524 162.338 21.836 162.338 21.004V19.852C162.338 19.036 162.082 18.364 161.57 17.836C161.074 17.292 160.346 17.02 159.386 17.02H154.25V23.86H159.386Z" fill="white"/>
</svg>
