<svg width="167" height="48" viewBox="0 0 167 48" fill="none" xmlns="http://www.w3.org/2000/svg">
<rect width="167" height="48" rx="24" fill="#3C3C3C"/>
<path d="M54.1765 32.5L52.3525 27.292H45.2245L43.4005 32.5H41.9605L47.8885 15.748H49.7365L55.6885 32.5H54.1765ZM48.8245 17.116H48.7285L45.5845 26.044H51.9685L48.8245 17.116ZM48.8245 14.38C48.0885 14.38 47.4805 14.148 47.0005 13.684C46.5205 13.204 46.2805 12.588 46.2805 11.836C46.2805 11.1 46.5205 10.5 47.0005 10.036C47.4805 9.556 48.0885 9.316 48.8245 9.316C49.5605 9.316 50.1685 9.556 50.6485 10.036C51.1285 10.5 51.3685 11.1 51.3685 11.836C51.3685 12.588 51.1285 13.204 50.6485 13.684C50.1685 14.148 49.5605 14.38 48.8245 14.38ZM48.8245 13.492C49.2885 13.492 49.6565 13.364 49.9285 13.108C50.2005 12.852 50.3365 12.5 50.3365 12.052V11.644C50.3365 11.18 50.2005 10.828 49.9285 10.588C49.6565 10.332 49.2885 10.204 48.8245 10.204C48.3605 10.204 47.9925 10.332 47.7205 10.588C47.4485 10.828 47.3125 11.18 47.3125 11.644V12.052C47.3125 12.5 47.4485 12.852 47.7205 13.108C47.9925 13.364 48.3605 13.492 48.8245 13.492ZM62.8405 23.86L60.1285 26.86V32.5H58.6885V15.748H60.1285V25.18H60.1765L62.8645 22.084L68.3845 15.748H70.1365L63.8245 22.876L70.4485 32.5H68.6725L62.8405 23.86ZM92.1608 17.596H92.0648L86.2808 27.844L80.4968 17.596H80.4008V32.5H79.0088V15.748H80.9768L86.2808 25.18H86.3528L91.6568 15.748H93.5528V32.5H92.1608V17.596ZM98.2979 32.5V15.748H108.09V17.02H99.7379V23.356H107.682V24.628H99.7379V31.228H108.09V32.5H98.2979ZM112.079 15.748H117.407C119.567 15.748 121.231 16.444 122.399 17.836C123.583 19.228 124.175 21.324 124.175 24.124C124.175 26.924 123.583 29.02 122.399 30.412C121.231 31.804 119.567 32.5 117.407 32.5H112.079V15.748ZM117.431 31.228C119.079 31.228 120.359 30.7 121.271 29.644C122.183 28.572 122.639 27.1 122.639 25.228V23.02C122.639 21.148 122.183 19.684 121.271 18.628C120.359 17.556 119.079 17.02 117.431 17.02H113.519V31.228H117.431Z" fill="white"/>
</svg>
