<svg width="272" height="64" viewBox="0 0 272 64" fill="none" xmlns="http://www.w3.org/2000/svg">
<path d="M5.04 10.92L16.32 39.576L27.552 10.92H32.112L18.192 45H14.448L0.48 10.92H5.04ZM43.425 45V10.92H47.745V45H43.425ZM62.9977 45V10.92H77.1577C78.5977 10.92 79.9257 11.224 81.1417 11.832C82.3577 12.44 83.3977 13.256 84.2617 14.28C85.1577 15.272 85.8457 16.408 86.3258 17.688C86.8378 18.936 87.0938 20.2 87.0938 21.48C87.0938 22.728 86.9017 23.944 86.5177 25.128C86.1337 26.28 85.5898 27.32 84.8857 28.248C84.1817 29.176 83.3337 29.944 82.3417 30.552C81.3498 31.16 80.2618 31.56 79.0778 31.752L87.5737 45H84.7417L76.4857 32.136H65.4457V45H62.9977ZM65.4457 29.88H77.3977C78.4857 29.88 79.4777 29.64 80.3737 29.16C81.2697 28.68 82.0377 28.056 82.6777 27.288C83.3177 26.488 83.7977 25.592 84.1178 24.6C84.4698 23.576 84.6458 22.536 84.6458 21.48C84.6458 20.392 84.4377 19.352 84.0217 18.36C83.6378 17.336 83.0938 16.44 82.3897 15.672C81.7177 14.904 80.9177 14.296 79.9897 13.848C79.0938 13.368 78.1177 13.128 77.0617 13.128H65.4457V29.88ZM100.89 45V10.92H103.338V45H100.89ZM119 45V10.92H130.328C133.016 10.92 135.368 11.368 137.384 12.264C139.432 13.16 141.128 14.376 142.472 15.912C143.816 17.448 144.824 19.256 145.496 21.336C146.168 23.384 146.504 25.576 146.504 27.912C146.504 30.504 146.12 32.856 145.352 34.968C144.616 37.048 143.544 38.84 142.136 40.344C140.728 41.816 139.016 42.968 137 43.8C135.016 44.6 132.792 45 130.328 45H119ZM144.056 27.912C144.056 25.768 143.752 23.8 143.144 22.008C142.536 20.184 141.64 18.616 140.456 17.304C139.304 15.992 137.88 14.968 136.184 14.232C134.488 13.496 132.536 13.128 130.328 13.128H121.448V42.792H130.328C132.568 42.792 134.536 42.424 136.232 41.688C137.96 40.92 139.4 39.864 140.552 38.52C141.704 37.176 142.568 35.608 143.144 33.816C143.752 31.992 144.056 30.024 144.056 27.912ZM159.939 45V10.92H162.387V45H159.939ZM188.754 10.92H190.866L205.266 45H202.674L197.922 33.768H181.65L176.898 45H174.258L188.754 10.92ZM197.25 31.752L189.81 13.896L182.226 31.752H197.25ZM219.608 15.528V45H217.16V10.92H219.032L242.936 40.92V10.92H245.384V45H243.128L219.608 15.528Z" fill="black"/>
<path d="M158.887 60.056C158.887 60.472 158.807 60.8613 158.647 61.224C158.487 61.576 158.269 61.8853 157.991 62.152C157.714 62.4187 157.389 62.6267 157.015 62.776C156.642 62.9253 156.247 63 155.831 63H150.519V51.64H155.815C156.21 51.64 156.567 51.7253 156.887 51.896C157.207 52.0667 157.479 52.2907 157.703 52.568C157.927 52.8347 158.098 53.144 158.215 53.496C158.343 53.8373 158.407 54.184 158.407 54.536C158.407 55.112 158.263 55.64 157.975 56.12C157.687 56.6 157.287 56.952 156.775 57.176C157.426 57.368 157.938 57.7307 158.311 58.264C158.695 58.7867 158.887 59.384 158.887 60.056ZM158.071 59.944C158.071 59.6453 158.018 59.3573 157.911 59.08C157.805 58.792 157.655 58.5413 157.463 58.328C157.271 58.104 157.042 57.928 156.775 57.8C156.519 57.672 156.242 57.608 155.943 57.608H151.335V62.264H155.831C156.151 62.264 156.445 62.2 156.711 62.072C156.989 61.944 157.223 61.7733 157.415 61.56C157.618 61.336 157.778 61.0853 157.895 60.808C158.013 60.5307 158.071 60.2427 158.071 59.944ZM151.335 52.376V56.92H155.495C155.805 56.92 156.087 56.856 156.343 56.728C156.599 56.6 156.818 56.4347 156.999 56.232C157.191 56.0187 157.341 55.7733 157.447 55.496C157.554 55.2187 157.607 54.936 157.607 54.648C157.607 54.3387 157.554 54.0507 157.447 53.784C157.351 53.5067 157.213 53.2667 157.031 53.064C156.861 52.8507 156.653 52.6853 156.407 52.568C156.162 52.44 155.89 52.376 155.591 52.376H151.335ZM160.356 51.64L164.324 57.928L168.308 51.64H169.22L164.74 58.712V63H163.924V58.68L159.46 51.64H160.356ZM174.566 63V51.64H179.238C179.718 51.64 180.161 51.7413 180.566 51.944C180.971 52.1467 181.318 52.4187 181.606 52.76C181.905 53.0907 182.134 53.4693 182.294 53.896C182.465 54.312 182.55 54.7333 182.55 55.16C182.55 55.6187 182.47 56.0613 182.31 56.488C182.161 56.9147 181.942 57.2933 181.654 57.624C181.377 57.9547 181.041 58.2213 180.646 58.424C180.251 58.616 179.814 58.712 179.334 58.712H175.382V63H174.566ZM175.382 57.96H179.302C179.675 57.96 180.011 57.8853 180.31 57.736C180.609 57.576 180.859 57.368 181.062 57.112C181.275 56.8453 181.435 56.5467 181.542 56.216C181.659 55.8747 181.718 55.5227 181.718 55.16C181.718 54.7867 181.649 54.4347 181.51 54.104C181.382 53.7627 181.201 53.464 180.966 53.208C180.742 52.952 180.475 52.7493 180.166 52.6C179.867 52.4507 179.547 52.376 179.206 52.376H175.382V57.96ZM184.504 63V51.64H189.224C189.704 51.64 190.146 51.7413 190.552 51.944C190.957 52.1467 191.304 52.4187 191.592 52.76C191.89 53.0907 192.12 53.4693 192.28 53.896C192.45 54.312 192.536 54.7333 192.536 55.16C192.536 55.576 192.472 55.9813 192.344 56.376C192.216 56.76 192.034 57.1067 191.8 57.416C191.565 57.7253 191.282 57.9813 190.952 58.184C190.621 58.3867 190.258 58.52 189.864 58.584L192.696 63H191.752L189 58.712H185.32V63H184.504ZM185.32 57.96H189.304C189.666 57.96 189.997 57.88 190.296 57.72C190.594 57.56 190.85 57.352 191.064 57.096C191.277 56.8293 191.437 56.5307 191.544 56.2C191.661 55.8587 191.72 55.512 191.72 55.16C191.72 54.7973 191.65 54.4507 191.512 54.12C191.384 53.7787 191.202 53.48 190.968 53.224C190.744 52.968 190.477 52.7653 190.168 52.616C189.869 52.456 189.544 52.376 189.192 52.376H185.32V57.96ZM199.422 63.08C198.633 63.08 197.913 62.9147 197.262 62.584C196.612 62.2533 196.052 61.8213 195.582 61.288C195.113 60.7547 194.75 60.1413 194.494 59.448C194.238 58.7547 194.11 58.0453 194.11 57.32C194.11 56.5627 194.244 55.8373 194.51 55.144C194.788 54.4507 195.161 53.8373 195.63 53.304C196.11 52.7707 196.676 52.3493 197.326 52.04C197.977 51.72 198.681 51.56 199.438 51.56C200.228 51.56 200.948 51.7307 201.598 52.072C202.26 52.4027 202.82 52.84 203.278 53.384C203.748 53.928 204.11 54.5467 204.366 55.24C204.622 55.9227 204.75 56.616 204.75 57.32C204.75 58.088 204.612 58.8187 204.334 59.512C204.068 60.2053 203.694 60.8187 203.214 61.352C202.745 61.8747 202.185 62.296 201.534 62.616C200.884 62.9253 200.18 63.08 199.422 63.08ZM194.926 57.32C194.926 57.9707 195.033 58.6 195.246 59.208C195.47 59.8053 195.78 60.3387 196.174 60.808C196.58 61.2667 197.06 61.6347 197.614 61.912C198.169 62.1893 198.777 62.328 199.438 62.328C200.121 62.328 200.734 62.184 201.278 61.896C201.833 61.608 202.302 61.2293 202.686 60.76C203.081 60.28 203.385 59.7413 203.598 59.144C203.812 58.5467 203.918 57.9387 203.918 57.32C203.918 56.6693 203.806 56.0453 203.582 55.448C203.358 54.84 203.044 54.3067 202.638 53.848C202.244 53.3787 201.774 53.0053 201.23 52.728C200.686 52.4507 200.089 52.312 199.438 52.312C198.756 52.312 198.137 52.456 197.582 52.744C197.028 53.032 196.553 53.416 196.158 53.896C195.764 54.3653 195.46 54.8987 195.246 55.496C195.033 56.0933 194.926 56.7013 194.926 57.32ZM214.346 52.376H210.186V63H209.37V52.376H205.21V51.64H214.346V52.376ZM223.681 62.264V63H216.113V51.64H223.537V52.376H216.929V56.84H222.705V57.544H216.929V62.264H223.681ZM224.892 57.24C224.892 56.5573 225.009 55.88 225.243 55.208C225.489 54.5253 225.841 53.9173 226.299 53.384C226.758 52.8507 227.318 52.4187 227.98 52.088C228.652 51.7467 229.414 51.576 230.268 51.576C231.281 51.576 232.145 51.8107 232.86 52.28C233.574 52.7387 234.108 53.3307 234.46 54.056L233.788 54.44C233.585 54.0453 233.345 53.7147 233.068 53.448C232.801 53.1813 232.508 52.968 232.188 52.808C231.878 52.6373 231.553 52.5147 231.212 52.44C230.87 52.3653 230.534 52.328 230.204 52.328C229.478 52.328 228.838 52.4773 228.284 52.776C227.729 53.064 227.26 53.4427 226.876 53.912C226.492 54.3813 226.198 54.9147 225.996 55.512C225.804 56.0987 225.708 56.6907 225.708 57.288C225.708 57.96 225.825 58.6 226.06 59.208C226.294 59.816 226.614 60.3547 227.02 60.824C227.425 61.2827 227.905 61.6507 228.46 61.928C229.014 62.2053 229.612 62.344 230.252 62.344C230.593 62.344 230.945 62.3013 231.308 62.216C231.67 62.1307 232.017 61.9973 232.348 61.816C232.678 61.6347 232.988 61.4053 233.276 61.128C233.564 60.84 233.804 60.504 233.996 60.12L234.7 60.456C234.508 60.8827 234.246 61.2613 233.916 61.592C233.585 61.9227 233.217 62.2 232.812 62.424C232.406 62.648 231.974 62.8187 231.516 62.936C231.068 63.0427 230.625 63.096 230.188 63.096C229.409 63.096 228.694 62.9253 228.044 62.584C227.404 62.2427 226.849 61.8 226.38 61.256C225.91 60.7013 225.542 60.0773 225.276 59.384C225.02 58.68 224.892 57.9653 224.892 57.24ZM245.522 51.64V63H244.706V57.56H237.538V63H236.722V51.64H237.538V56.824H244.706V51.64H245.522Z" fill="black"/>
</svg>
